<svg xmlns="http://www.w3.org/2000/svg" xmlns:xlink="http://www.w3.org/1999/xlink" width="500" zoomAndPan="magnify" viewBox="0 0 375 374.999991" height="500" preserveAspectRatio="xMidYMid meet" version="1.0"><defs><g/><linearGradient x1="0" gradientTransform="matrix(0.75, 0, 0, 0.75, 0.0000045, 0)" y1="0" x2="499.999979" gradientUnits="userSpaceOnUse" y2="0" id="306fecd7ee"><stop stop-opacity="1" stop-color="rgb(100%, 96.899414%, 67.799377%)" offset="0"/><stop stop-opacity="1" stop-color="rgb(100%, 96.77887%, 67.915344%)" offset="0.0078125"/><stop stop-opacity="1" stop-color="rgb(100%, 96.540833%, 68.147278%)" offset="0.015625"/><stop stop-opacity="1" stop-color="rgb(100%, 96.30127%, 68.380737%)" offset="0.0234375"/><stop stop-opacity="1" stop-color="rgb(100%, 96.061707%, 68.614197%)" offset="0.03125"/><stop stop-opacity="1" stop-color="rgb(100%, 95.823669%, 68.84613%)" offset="0.0390625"/><stop stop-opacity="1" stop-color="rgb(100%, 95.584106%, 69.07959%)" offset="0.046875"/><stop stop-opacity="1" stop-color="rgb(100%, 95.344543%, 69.311523%)" offset="0.0546875"/><stop stop-opacity="1" stop-color="rgb(100%, 95.106506%, 69.544983%)" offset="0.0625"/><stop stop-opacity="1" stop-color="rgb(100%, 94.866943%, 69.778442%)" offset="0.0703125"/><stop stop-opacity="1" stop-color="rgb(100%, 94.62738%, 70.010376%)" offset="0.078125"/><stop stop-opacity="1" stop-color="rgb(100%, 94.387817%, 70.243835%)" offset="0.0859375"/><stop stop-opacity="1" stop-color="rgb(100%, 94.14978%, 70.475769%)" offset="0.09375"/><stop stop-opacity="1" stop-color="rgb(100%, 93.910217%, 70.709229%)" offset="0.101562"/><stop stop-opacity="1" stop-color="rgb(100%, 93.670654%, 70.941162%)" offset="0.109375"/><stop stop-opacity="1" stop-color="rgb(100%, 93.432617%, 71.174622%)" offset="0.117188"/><stop stop-opacity="1" stop-color="rgb(100%, 93.193054%, 71.408081%)" offset="0.125"/><stop stop-opacity="1" stop-color="rgb(100%, 92.953491%, 71.640015%)" offset="0.132812"/><stop stop-opacity="1" stop-color="rgb(100%, 92.715454%, 71.873474%)" offset="0.140625"/><stop stop-opacity="1" stop-color="rgb(100%, 92.475891%, 72.105408%)" offset="0.148437"/><stop stop-opacity="1" stop-color="rgb(100%, 92.236328%, 72.338867%)" offset="0.15625"/><stop stop-opacity="1" stop-color="rgb(100%, 91.998291%, 72.570801%)" offset="0.164062"/><stop stop-opacity="1" stop-color="rgb(100%, 91.758728%, 72.80426%)" offset="0.171875"/><stop stop-opacity="1" stop-color="rgb(100%, 91.519165%, 73.03772%)" offset="0.179687"/><stop stop-opacity="1" stop-color="rgb(100%, 91.281128%, 73.269653%)" offset="0.1875"/><stop stop-opacity="1" stop-color="rgb(100%, 91.041565%, 73.503113%)" offset="0.195312"/><stop stop-opacity="1" stop-color="rgb(100%, 90.802002%, 73.735046%)" offset="0.203125"/><stop stop-opacity="1" stop-color="rgb(100%, 90.563965%, 73.968506%)" offset="0.210938"/><stop stop-opacity="1" stop-color="rgb(100%, 90.324402%, 74.200439%)" offset="0.21875"/><stop stop-opacity="1" stop-color="rgb(100%, 90.084839%, 74.433899%)" offset="0.226562"/><stop stop-opacity="1" stop-color="rgb(100%, 89.846802%, 74.667358%)" offset="0.234375"/><stop stop-opacity="1" stop-color="rgb(100%, 89.607239%, 74.899292%)" offset="0.242188"/><stop stop-opacity="1" stop-color="rgb(100%, 89.367676%, 75.132751%)" offset="0.25"/><stop stop-opacity="1" stop-color="rgb(100%, 89.129639%, 75.364685%)" offset="0.257812"/><stop stop-opacity="1" stop-color="rgb(100%, 88.890076%, 75.598145%)" offset="0.265625"/><stop stop-opacity="1" stop-color="rgb(100%, 88.650513%, 75.830078%)" offset="0.273437"/><stop stop-opacity="1" stop-color="rgb(100%, 88.412476%, 76.063538%)" offset="0.28125"/><stop stop-opacity="1" stop-color="rgb(100%, 88.172913%, 76.296997%)" offset="0.289062"/><stop stop-opacity="1" stop-color="rgb(100%, 87.93335%, 76.528931%)" offset="0.296875"/><stop stop-opacity="1" stop-color="rgb(100%, 87.695312%, 76.76239%)" offset="0.304687"/><stop stop-opacity="1" stop-color="rgb(100%, 87.45575%, 76.994324%)" offset="0.3125"/><stop stop-opacity="1" stop-color="rgb(100%, 87.216187%, 77.227783%)" offset="0.320312"/><stop stop-opacity="1" stop-color="rgb(100%, 86.978149%, 77.461243%)" offset="0.328125"/><stop stop-opacity="1" stop-color="rgb(100%, 86.738586%, 77.693176%)" offset="0.335937"/><stop stop-opacity="1" stop-color="rgb(100%, 86.499023%, 77.926636%)" offset="0.34375"/><stop stop-opacity="1" stop-color="rgb(100%, 86.260986%, 78.158569%)" offset="0.351562"/><stop stop-opacity="1" stop-color="rgb(100%, 86.021423%, 78.392029%)" offset="0.359375"/><stop stop-opacity="1" stop-color="rgb(100%, 85.78186%, 78.623962%)" offset="0.367187"/><stop stop-opacity="1" stop-color="rgb(100%, 85.543823%, 78.857422%)" offset="0.375"/><stop stop-opacity="1" stop-color="rgb(100%, 85.30426%, 79.090881%)" offset="0.382812"/><stop stop-opacity="1" stop-color="rgb(100%, 85.064697%, 79.322815%)" offset="0.390625"/><stop stop-opacity="1" stop-color="rgb(100%, 84.82666%, 79.556274%)" offset="0.398438"/><stop stop-opacity="1" stop-color="rgb(100%, 84.587097%, 79.788208%)" offset="0.40625"/><stop stop-opacity="1" stop-color="rgb(100%, 84.347534%, 80.021667%)" offset="0.414062"/><stop stop-opacity="1" stop-color="rgb(100%, 84.109497%, 80.253601%)" offset="0.421875"/><stop stop-opacity="1" stop-color="rgb(100%, 83.869934%, 80.487061%)" offset="0.429688"/><stop stop-opacity="1" stop-color="rgb(100%, 83.630371%, 80.72052%)" offset="0.4375"/><stop stop-opacity="1" stop-color="rgb(100%, 83.392334%, 80.952454%)" offset="0.445312"/><stop stop-opacity="1" stop-color="rgb(100%, 83.152771%, 81.185913%)" offset="0.453125"/><stop stop-opacity="1" stop-color="rgb(100%, 82.913208%, 81.417847%)" offset="0.460938"/><stop stop-opacity="1" stop-color="rgb(100%, 82.675171%, 81.651306%)" offset="0.46875"/><stop stop-opacity="1" stop-color="rgb(100%, 82.435608%, 81.88324%)" offset="0.476562"/><stop stop-opacity="1" stop-color="rgb(100%, 82.196045%, 82.116699%)" offset="0.484375"/><stop stop-opacity="1" stop-color="rgb(100%, 81.958008%, 82.350159%)" offset="0.492188"/><stop stop-opacity="1" stop-color="rgb(100%, 81.718445%, 82.582092%)" offset="0.5"/><stop stop-opacity="1" stop-color="rgb(100%, 81.478882%, 82.815552%)" offset="0.507812"/><stop stop-opacity="1" stop-color="rgb(100%, 81.240845%, 83.047485%)" offset="0.515625"/><stop stop-opacity="1" stop-color="rgb(100%, 81.001282%, 83.280945%)" offset="0.523437"/><stop stop-opacity="1" stop-color="rgb(100%, 80.761719%, 83.512878%)" offset="0.53125"/><stop stop-opacity="1" stop-color="rgb(100%, 80.523682%, 83.746338%)" offset="0.539062"/><stop stop-opacity="1" stop-color="rgb(100%, 80.284119%, 83.979797%)" offset="0.546875"/><stop stop-opacity="1" stop-color="rgb(100%, 80.044556%, 84.211731%)" offset="0.554687"/><stop stop-opacity="1" stop-color="rgb(100%, 79.806519%, 84.44519%)" offset="0.5625"/><stop stop-opacity="1" stop-color="rgb(100%, 79.566956%, 84.677124%)" offset="0.570312"/><stop stop-opacity="1" stop-color="rgb(100%, 79.327393%, 84.910583%)" offset="0.578125"/><stop stop-opacity="1" stop-color="rgb(100%, 79.08783%, 85.144043%)" offset="0.585937"/><stop stop-opacity="1" stop-color="rgb(100%, 78.849792%, 85.375977%)" offset="0.59375"/><stop stop-opacity="1" stop-color="rgb(100%, 78.610229%, 85.609436%)" offset="0.601562"/><stop stop-opacity="1" stop-color="rgb(100%, 78.370667%, 85.84137%)" offset="0.609375"/><stop stop-opacity="1" stop-color="rgb(100%, 78.132629%, 86.074829%)" offset="0.617187"/><stop stop-opacity="1" stop-color="rgb(100%, 77.893066%, 86.306763%)" offset="0.625"/><stop stop-opacity="1" stop-color="rgb(100%, 77.653503%, 86.540222%)" offset="0.632812"/><stop stop-opacity="1" stop-color="rgb(100%, 77.415466%, 86.773682%)" offset="0.640625"/><stop stop-opacity="1" stop-color="rgb(100%, 77.175903%, 87.005615%)" offset="0.648437"/><stop stop-opacity="1" stop-color="rgb(100%, 76.93634%, 87.239075%)" offset="0.65625"/><stop stop-opacity="1" stop-color="rgb(100%, 76.698303%, 87.471008%)" offset="0.664062"/><stop stop-opacity="1" stop-color="rgb(100%, 76.45874%, 87.704468%)" offset="0.671875"/><stop stop-opacity="1" stop-color="rgb(100%, 76.219177%, 87.936401%)" offset="0.679687"/><stop stop-opacity="1" stop-color="rgb(100%, 75.98114%, 88.169861%)" offset="0.6875"/><stop stop-opacity="1" stop-color="rgb(100%, 75.741577%, 88.40332%)" offset="0.695312"/><stop stop-opacity="1" stop-color="rgb(100%, 75.502014%, 88.635254%)" offset="0.703125"/><stop stop-opacity="1" stop-color="rgb(100%, 75.263977%, 88.868713%)" offset="0.710937"/><stop stop-opacity="1" stop-color="rgb(100%, 75.024414%, 89.100647%)" offset="0.71875"/><stop stop-opacity="1" stop-color="rgb(100%, 74.784851%, 89.334106%)" offset="0.726562"/><stop stop-opacity="1" stop-color="rgb(100%, 74.546814%, 89.56604%)" offset="0.734375"/><stop stop-opacity="1" stop-color="rgb(100%, 74.307251%, 89.7995%)" offset="0.742187"/><stop stop-opacity="1" stop-color="rgb(100%, 74.067688%, 90.032959%)" offset="0.75"/><stop stop-opacity="1" stop-color="rgb(100%, 73.829651%, 90.264893%)" offset="0.757812"/><stop stop-opacity="1" stop-color="rgb(100%, 73.590088%, 90.498352%)" offset="0.765625"/><stop stop-opacity="1" stop-color="rgb(100%, 73.350525%, 90.730286%)" offset="0.773438"/><stop stop-opacity="1" stop-color="rgb(100%, 73.112488%, 90.963745%)" offset="0.78125"/><stop stop-opacity="1" stop-color="rgb(100%, 72.872925%, 91.197205%)" offset="0.789062"/><stop stop-opacity="1" stop-color="rgb(100%, 72.633362%, 91.429138%)" offset="0.796875"/><stop stop-opacity="1" stop-color="rgb(100%, 72.395325%, 91.662598%)" offset="0.804688"/><stop stop-opacity="1" stop-color="rgb(100%, 72.155762%, 91.894531%)" offset="0.8125"/><stop stop-opacity="1" stop-color="rgb(100%, 71.916199%, 92.127991%)" offset="0.820312"/><stop stop-opacity="1" stop-color="rgb(100%, 71.678162%, 92.359924%)" offset="0.828125"/><stop stop-opacity="1" stop-color="rgb(100%, 71.438599%, 92.593384%)" offset="0.835938"/><stop stop-opacity="1" stop-color="rgb(100%, 71.199036%, 92.826843%)" offset="0.84375"/><stop stop-opacity="1" stop-color="rgb(100%, 70.960999%, 93.058777%)" offset="0.851562"/><stop stop-opacity="1" stop-color="rgb(100%, 70.721436%, 93.292236%)" offset="0.859375"/><stop stop-opacity="1" stop-color="rgb(100%, 70.481873%, 93.52417%)" offset="0.867188"/><stop stop-opacity="1" stop-color="rgb(100%, 70.243835%, 93.757629%)" offset="0.875"/><stop stop-opacity="1" stop-color="rgb(100%, 70.004272%, 93.989563%)" offset="0.882812"/><stop stop-opacity="1" stop-color="rgb(100%, 69.764709%, 94.223022%)" offset="0.890625"/><stop stop-opacity="1" stop-color="rgb(100%, 69.526672%, 94.456482%)" offset="0.898438"/><stop stop-opacity="1" stop-color="rgb(100%, 69.287109%, 94.688416%)" offset="0.90625"/><stop stop-opacity="1" stop-color="rgb(100%, 69.047546%, 94.921875%)" offset="0.914062"/><stop stop-opacity="1" stop-color="rgb(100%, 68.809509%, 95.153809%)" offset="0.921875"/><stop stop-opacity="1" stop-color="rgb(100%, 68.569946%, 95.387268%)" offset="0.929688"/><stop stop-opacity="1" stop-color="rgb(100%, 68.330383%, 95.619202%)" offset="0.9375"/><stop stop-opacity="1" stop-color="rgb(100%, 68.092346%, 95.852661%)" offset="0.945312"/><stop stop-opacity="1" stop-color="rgb(100%, 67.852783%, 96.086121%)" offset="0.953125"/><stop stop-opacity="1" stop-color="rgb(100%, 67.61322%, 96.318054%)" offset="0.960938"/><stop stop-opacity="1" stop-color="rgb(100%, 67.375183%, 96.551514%)" offset="0.96875"/><stop stop-opacity="1" stop-color="rgb(100%, 67.13562%, 96.783447%)" offset="0.976562"/><stop stop-opacity="1" stop-color="rgb(100%, 66.896057%, 97.016907%)" offset="0.984375"/><stop stop-opacity="1" stop-color="rgb(100%, 66.65802%, 97.24884%)" offset="0.992188"/><stop stop-opacity="1" stop-color="rgb(100%, 66.418457%, 97.4823%)" offset="1"/></linearGradient><clipPath id="3318ac016e"><path d="M 143 104 L 238 104 L 238 213.902344 L 143 213.902344 Z M 143 104 " clip-rule="nonzero"/></clipPath><clipPath id="ef022ce38e"><path d="M 137 83.402344 L 232 83.402344 L 232 162 L 137 162 Z M 137 83.402344 " clip-rule="nonzero"/></clipPath></defs><rect x="-37.5" width="450" fill="#ffffff" y="-37.499999" height="449.999989" fill-opacity="1"/><rect x="-37.5" fill="url(#306fecd7ee)" width="450" y="-37.499999" height="449.999989"/><g clip-path="url(#3318ac016e)"><path fill="#ed761b" d="M 144.777344 160.054688 C 146.285156 162.332031 148.03125 164.65625 149.988281 167.171875 L 185.800781 213.328125 C 186.226562 213.855469 186.808594 214.148438 187.496094 214.148438 C 188.183594 214.148438 188.765625 213.855469 189.1875 213.328125 L 224.949219 167.25 C 233.464844 156.273438 237.988281 148.789062 237.988281 133.894531 C 237.988281 129.214844 237.355469 124.691406 236.164062 120.40625 L 224.84375 130.667969 C 223.785156 131.621094 223.230469 132.863281 223.203125 134.292969 C 222.992188 153.839844 207.09375 169.605469 187.496094 169.605469 C 174.691406 169.605469 163.476562 162.859375 157.183594 152.753906 C 162.5 146.832031 167.816406 140.933594 172.867188 135.269531 C 175.722656 135.984375 178.34375 137.941406 182.761719 134.453125 C 185.539062 132.253906 197.308594 119.03125 200.375 115.566406 L 199.582031 114.773438 C 195.375 118.84375 191.460938 122.546875 187.070312 126.382812 C 184.636719 128.339844 183.367188 126.570312 185.246094 124.769531 L 196.804688 111.996094 L 195.957031 111.148438 C 191.886719 114.851562 187.890625 118.925781 183.710938 122.628906 C 183.050781 123.128906 182.628906 123.976562 181.332031 123.632812 L 181.253906 123.527344 L 181.144531 123.449219 C 180.800781 122.152344 181.648438 121.726562 182.152344 121.066406 C 185.855469 116.886719 189.929688 112.894531 193.632812 108.820312 L 192.8125 108 L 180.035156 119.558594 C 178.261719 121.4375 176.464844 120.167969 178.421875 117.734375 C 182.257812 113.34375 185.960938 109.429688 190.035156 105.222656 L 189.238281 104.429688 C 185.773438 107.496094 172.523438 119.269531 170.355469 122.046875 C 166.863281 126.488281 168.820312 129.082031 169.535156 131.9375 C 167.601562 133.65625 165.644531 135.429688 163.664062 137.203125 L 145.570312 153.574219 C 143.746094 155.269531 143.402344 157.992188 144.777344 160.054688 " fill-opacity="1" fill-rule="evenodd"/></g><g clip-path="url(#ef022ce38e)"><path fill="#f4b232" d="M 187.496094 98.1875 C 200.296875 98.1875 211.511719 104.90625 217.808594 115.035156 C 211.511719 122.046875 205.191406 129.027344 198.816406 136.039062 C 183.765625 129.902344 173.820312 155.214844 178.394531 160.003906 C 178.421875 160.027344 178.476562 160.082031 178.5 160.109375 L 178.605469 160.214844 C 183.394531 164.789062 208.679688 154.871094 202.570312 139.792969 C 204.6875 137.863281 206.804688 135.957031 208.894531 134.054688 C 208.894531 134.054688 208.894531 134.054688 208.917969 134.027344 C 210.320312 132.757812 211.722656 131.488281 213.152344 130.191406 L 230.210938 114.746094 C 231.984375 113.160156 232.382812 110.617188 231.164062 108.554688 C 222.4375 93.503906 206.140625 83.402344 187.496094 83.402344 C 159.617188 83.402344 137 106.015625 137 133.894531 C 137 139.660156 137.6875 144.316406 139.011719 148.496094 L 150.171875 138.417969 C 151.285156 137.414062 151.839844 136.117188 151.8125 134.636719 C 151.8125 134.398438 151.8125 134.160156 151.8125 133.921875 C 151.785156 114.164062 167.789062 98.1875 187.496094 98.1875 " fill-opacity="1" fill-rule="evenodd"/></g><g fill="#000000" fill-opacity="1"><g transform="translate(59.218007, 250.707288)"><g><path d="M 12.898438 -7.800781 L 7.738281 -7.800781 L 10.320312 -15.058594 Z M 20.519531 0 L 12.238281 -20.398438 L 8.429688 -20.398438 L 0.148438 0 L 4.980469 0 L 6.449219 -4.109375 L 14.21875 -4.109375 L 15.691406 0 Z M 20.519531 0 "/></g></g></g><g fill="#000000" fill-opacity="1"><g transform="translate(80.517986, 250.707288)"><g><path d="M 6.300781 -7.289062 L 6.328125 -7.289062 L 11.191406 0 L 16.890625 0 L 11.039062 -7.5 C 13.621094 -8.128906 15.691406 -10.410156 15.691406 -13.859375 C 15.691406 -17.730469 12.75 -20.398438 9.449219 -20.398438 L 1.800781 -20.398438 L 1.800781 0 L 6.300781 0 Z M 8.699219 -16.859375 C 10.019531 -16.859375 11.398438 -15.71875 11.398438 -13.859375 C 11.398438 -11.910156 10.019531 -10.828125 8.699219 -10.828125 L 6.300781 -10.828125 L 6.300781 -16.859375 Z M 8.699219 -16.859375 "/></g></g></g><g fill="#000000" fill-opacity="1"><g transform="translate(97.677972, 250.707288)"><g/></g></g><g fill="#000000" fill-opacity="1"><g transform="translate(105.807966, 250.707288)"><g><path d="M 7.769531 0 L 12.269531 0 L 12.269531 -9.75 L 19.800781 -20.398438 L 14.429688 -20.398438 L 10.019531 -13.351562 L 5.609375 -20.398438 L 0.238281 -20.398438 L 7.769531 -9.75 Z M 7.769531 0 "/></g></g></g><g fill="#000000" fill-opacity="1"><g transform="translate(126.477946, 250.707288)"><g><path d="M 17.550781 -10.230469 C 17.550781 -7.078125 14.699219 -4.199219 11.550781 -4.199219 C 8.398438 -4.199219 5.550781 -7.078125 5.550781 -10.230469 C 5.550781 -13.378906 8.398438 -16.230469 11.550781 -16.230469 C 14.699219 -16.230469 17.550781 -13.378906 17.550781 -10.230469 Z M 22.050781 -10.199219 C 22.050781 -15.839844 17.191406 -20.699219 11.550781 -20.699219 C 5.910156 -20.699219 1.050781 -15.839844 1.050781 -10.199219 C 1.050781 -4.558594 5.910156 0.300781 11.550781 0.300781 C 17.191406 0.300781 22.050781 -4.558594 22.050781 -10.199219 Z M 22.050781 -10.199219 "/></g></g></g><g fill="#000000" fill-opacity="1"><g transform="translate(150.207927, 250.707288)"><g><path d="M 13.710938 -20.398438 L 13.710938 -8.609375 C 13.710938 -5.789062 12.871094 -4.199219 9.78125 -4.199219 C 6.71875 -4.199219 5.851562 -5.789062 5.851562 -8.609375 L 5.851562 -20.398438 L 1.351562 -20.398438 L 1.351562 -7.949219 C 1.351562 -2.519531 4.46875 0.300781 9.78125 0.300781 C 15.089844 0.300781 18.210938 -2.519531 18.210938 -7.949219 L 18.210938 -20.398438 Z M 13.710938 -20.398438 "/></g></g></g><g fill="#000000" fill-opacity="1"><g transform="translate(170.397913, 250.707288)"><g/></g></g><g fill="#000000" fill-opacity="1"><g transform="translate(178.52791, 250.707288)"><g><path d="M 13.019531 -20.398438 L 13.019531 -12.269531 L 6.300781 -12.269531 L 6.300781 -20.398438 L 1.800781 -20.398438 L 1.800781 0 L 6.300781 0 L 6.300781 -8.191406 L 13.019531 -8.191406 L 13.019531 0 L 17.820312 0 L 17.820312 -20.398438 Z M 13.019531 -20.398438 "/></g></g></g><g fill="#000000" fill-opacity="1"><g transform="translate(198.777897, 250.707288)"><g><path d="M 13.710938 -20.398438 L 13.710938 -8.609375 C 13.710938 -5.789062 12.871094 -4.199219 9.78125 -4.199219 C 6.71875 -4.199219 5.851562 -5.789062 5.851562 -8.609375 L 5.851562 -20.398438 L 1.351562 -20.398438 L 1.351562 -7.949219 C 1.351562 -2.519531 4.46875 0.300781 9.78125 0.300781 C 15.089844 0.300781 18.210938 -2.519531 18.210938 -7.949219 L 18.210938 -20.398438 Z M 13.710938 -20.398438 "/></g></g></g><g fill="#000000" fill-opacity="1"><g transform="translate(218.967883, 250.707288)"><g><path d="M 17.820312 0 L 17.820312 -20.398438 L 13.320312 -20.398438 L 13.320312 -7.679688 L 6.300781 -20.398438 L 1.800781 -20.398438 L 1.800781 0 L 6.300781 0 L 6.300781 -12.71875 L 13.320312 0 Z M 17.820312 0 "/></g></g></g><g fill="#000000" fill-opacity="1"><g transform="translate(239.217871, 250.707288)"><g><path d="M 12 -16.5 C 13.980469 -16.5 16.019531 -15.691406 17.011719 -13.53125 L 21.960938 -13.53125 C 20.550781 -17.761719 16.5 -20.699219 12 -20.699219 C 6.238281 -20.699219 1.5 -15.960938 1.5 -10.199219 C 1.5 -4.441406 6.238281 0.300781 12 0.300781 C 17.820312 0.300781 22.46875 -4.410156 22.46875 -10.199219 L 22.46875 -10.890625 L 12.421875 -10.890625 L 12.421875 -7.5 L 17.609375 -7.5 C 16.5 -4.410156 13.980469 -3.78125 12 -3.78125 C 8.761719 -3.78125 6.058594 -6.691406 6.058594 -10.140625 C 6.058594 -13.589844 8.761719 -16.5 12 -16.5 Z M 12 -16.5 "/></g></g></g><g fill="#000000" fill-opacity="1"><g transform="translate(263.367844, 250.707288)"><g><path d="M 6.300781 -7.289062 L 6.328125 -7.289062 L 11.191406 0 L 16.890625 0 L 11.039062 -7.5 C 13.621094 -8.128906 15.691406 -10.410156 15.691406 -13.859375 C 15.691406 -17.730469 12.75 -20.398438 9.449219 -20.398438 L 1.800781 -20.398438 L 1.800781 0 L 6.300781 0 Z M 8.699219 -16.859375 C 10.019531 -16.859375 11.398438 -15.71875 11.398438 -13.859375 C 11.398438 -11.910156 10.019531 -10.828125 8.699219 -10.828125 L 6.300781 -10.828125 L 6.300781 -16.859375 Z M 8.699219 -16.859375 "/></g></g></g><g fill="#000000" fill-opacity="1"><g transform="translate(280.527823, 250.707288)"><g><path d="M 7.769531 0 L 12.269531 0 L 12.269531 -9.75 L 19.800781 -20.398438 L 14.429688 -20.398438 L 10.019531 -13.351562 L 5.609375 -20.398438 L 0.238281 -20.398438 L 7.769531 -9.75 Z M 7.769531 0 "/></g></g></g><g fill="#000000" fill-opacity="1"><g transform="translate(301.197797, 250.707288)"><g><path d="M 4.769531 -2.308594 C 4.769531 -0.871094 5.941406 0.300781 7.378906 0.300781 C 8.851562 0.300781 10.019531 -0.871094 10.019531 -2.308594 C 10.019531 -3.78125 8.851562 -4.949219 7.378906 -4.949219 C 5.941406 -4.949219 4.769531 -3.78125 4.769531 -2.308594 Z M 9.269531 -10.949219 C 9.269531 -13.019531 13.53125 -13.769531 13.53125 -17.308594 C 13.53125 -21.089844 10.441406 -22.800781 7.351562 -22.800781 C 3.691406 -22.800781 1.078125 -20.820312 1.050781 -16.679688 L 4.859375 -16.679688 C 4.710938 -18.421875 5.671875 -19.410156 7.351562 -19.410156 C 8.519531 -19.410156 9.71875 -18.898438 9.71875 -17.308594 C 9.71875 -15.179688 5.429688 -15.328125 5.429688 -10.949219 L 5.429688 -6.480469 L 9.269531 -6.480469 Z M 9.269531 -10.949219 "/></g></g></g><g fill="#000000" fill-opacity="1"><g transform="translate(73.77828, 286.650888)"><g><path d="M 4.734375 -5.761719 C 6.316406 -5.382812 7.398438 -4.96875 7.972656 -4.5 C 8.371094 -4.175781 8.566406 -3.761719 8.566406 -3.257812 C 8.566406 -2.753906 8.460938 -2.339844 8.242188 -2.050781 C 7.703125 -1.296875 6.730469 -0.917969 5.363281 -0.917969 C 3.457031 -0.917969 2.375 -1.566406 2.140625 -2.863281 L 0.664062 -2.863281 C 1.097656 -0.792969 2.664062 0.234375 5.363281 0.234375 C 6.570312 0.234375 7.578125 -0.0195312 8.386719 -0.558594 C 9.359375 -1.1875 9.863281 -2.125 9.863281 -3.347656 C 9.863281 -4.355469 9.46875 -5.128906 8.675781 -5.671875 C 8.117188 -6.066406 7.21875 -6.425781 5.976562 -6.75 C 4.714844 -7.074219 3.90625 -7.34375 3.527344 -7.542969 C 2.699219 -7.957031 2.285156 -8.53125 2.304688 -9.289062 C 2.304688 -9.683594 2.375 -10.027344 2.554688 -10.277344 C 3.023438 -10.980469 3.851562 -11.339844 5.039062 -11.339844 C 6.714844 -11.339844 7.667969 -10.800781 7.921875 -9.757812 L 9.289062 -9.757812 C 8.839844 -11.519531 7.414062 -12.421875 5.039062 -12.421875 C 3.960938 -12.421875 3.007812 -12.132812 2.214844 -11.554688 C 1.402344 -10.980469 0.988281 -10.132812 0.988281 -8.980469 C 0.988281 -7.414062 2.25 -6.335938 4.734375 -5.761719 Z M 4.734375 -5.761719 "/></g></g></g><g fill="#000000" fill-opacity="1"><g transform="translate(87.962359, 286.650888)"><g><path d="M 3.328125 -4.5 L 5.5625 -10.132812 L 7.777344 -4.5 Z M 10.925781 0 L 5.5625 -13.085938 L 0.179688 0 L 1.546875 0 L 2.863281 -3.328125 L 8.242188 -3.328125 L 9.558594 0 Z M 10.925781 0 "/></g></g></g><g fill="#000000" fill-opacity="1"><g transform="translate(102.920435, 286.650888)"><g><path d="M 5.742188 0.738281 L 11.285156 -12.238281 L 9.917969 -12.238281 L 5.742188 -2.375 L 1.546875 -12.238281 L 0.179688 -12.238281 Z M 5.742188 0.738281 "/></g></g></g><g fill="#000000" fill-opacity="1"><g transform="translate(118.238508, 286.650888)"><g><path d="M 12.132812 -6.15625 C 12.132812 -4.753906 11.628906 -3.5625 10.65625 -2.59375 C 9.664062 -1.601562 8.476562 -1.117188 7.09375 -1.117188 C 5.707031 -1.117188 4.519531 -1.601562 3.546875 -2.59375 C 2.554688 -3.5625 2.070312 -4.753906 2.070312 -6.15625 C 2.070312 -7.523438 2.554688 -8.710938 3.546875 -9.703125 C 4.519531 -10.675781 5.707031 -11.179688 7.09375 -11.179688 C 8.476562 -11.179688 9.664062 -10.675781 10.65625 -9.703125 C 11.628906 -8.710938 12.132812 -7.523438 12.132812 -6.15625 Z M 13.390625 -6.15625 C 13.390625 -7.019531 13.210938 -7.828125 12.886719 -8.605469 C 12.5625 -9.359375 12.113281 -10.027344 11.539062 -10.601562 C 10.960938 -11.160156 10.296875 -11.609375 9.539062 -11.933594 C 8.765625 -12.257812 7.957031 -12.4375 7.09375 -12.4375 C 6.226562 -12.4375 5.398438 -12.257812 4.644531 -11.933594 C 3.886719 -11.609375 3.222656 -11.160156 2.644531 -10.601562 C 2.070312 -10.027344 1.621094 -9.359375 1.296875 -8.605469 C 0.972656 -7.828125 0.808594 -7.019531 0.808594 -6.15625 C 0.808594 -5.292969 0.972656 -4.464844 1.296875 -3.707031 C 1.621094 -2.933594 2.070312 -2.269531 2.644531 -1.691406 C 3.222656 -1.117188 3.886719 -0.664062 4.644531 -0.34375 C 5.398438 -0.0195312 6.226562 0.144531 7.09375 0.144531 C 7.957031 0.144531 8.765625 -0.0195312 9.539062 -0.34375 C 10.296875 -0.664062 10.960938 -1.117188 11.539062 -1.691406 C 12.113281 -2.269531 12.5625 -2.933594 12.886719 -3.707031 C 13.210938 -4.464844 13.390625 -5.292969 13.390625 -6.15625 Z M 13.390625 -6.15625 "/></g></g></g><g fill="#000000" fill-opacity="1"><g transform="translate(136.292578, 286.650888)"><g><path d="M 2.609375 -6.046875 L 2.609375 -11.035156 L 5.453125 -11.035156 C 6.191406 -11.035156 6.785156 -10.800781 7.234375 -10.332031 C 7.667969 -9.863281 7.902344 -9.289062 7.902344 -8.566406 C 7.902344 -7.847656 7.667969 -7.253906 7.199219 -6.769531 C 6.730469 -6.28125 6.15625 -6.046875 5.453125 -6.046875 Z M 9.160156 -8.550781 C 9.160156 -9.59375 8.765625 -10.492188 8.011719 -11.195312 C 7.273438 -11.878906 6.355469 -12.238281 5.273438 -12.238281 L 1.351562 -12.238281 L 1.351562 0 L 2.609375 0 L 2.609375 -4.84375 L 4.066406 -4.84375 L 7.667969 0 L 9.359375 0 L 5.578125 -4.84375 C 6.535156 -4.894531 7.34375 -5.238281 8.011719 -5.867188 C 8.765625 -6.570312 9.160156 -7.46875 9.160156 -8.550781 Z M 9.160156 -8.550781 "/></g></g></g><g fill="#000000" fill-opacity="1"><g transform="translate(149.936669, 286.650888)"><g/></g></g><g fill="#000000" fill-opacity="1"><g transform="translate(158.648769, 286.650888)"><g><path d="M 0.359375 -11.105469 L 3.328125 -11.105469 L 3.328125 -0.0351562 L 4.589844 -0.0351562 L 4.589844 -11.105469 L 7.558594 -11.105469 L 7.558594 -12.277344 L 0.359375 -12.277344 Z M 0.359375 -11.105469 "/></g></g></g><g fill="#000000" fill-opacity="1"><g transform="translate(170.42086, 286.650888)"><g><path d="M 2.609375 0 L 2.609375 -5.472656 L 8.171875 -5.472656 L 8.171875 0 L 9.433594 0 L 9.433594 -12.238281 L 8.171875 -12.238281 L 8.171875 -6.730469 L 2.609375 -6.730469 L 2.609375 -12.238281 L 1.351562 -12.238281 L 1.351562 0 Z M 2.609375 0 "/></g></g></g><g fill="#000000" fill-opacity="1"><g transform="translate(185.054945, 286.650888)"><g><path d="M 8.621094 0 L 8.621094 -1.171875 L 2.609375 -1.171875 L 2.609375 -5.527344 L 8.441406 -5.527344 L 8.441406 -6.714844 L 2.609375 -6.714844 L 2.609375 -11.070312 L 8.621094 -11.070312 L 8.621094 -12.238281 L 1.351562 -12.238281 L 1.351562 0 Z M 8.621094 0 "/></g></g></g><g fill="#000000" fill-opacity="1"><g transform="translate(198.879029, 286.650888)"><g/></g></g><g fill="#000000" fill-opacity="1"><g transform="translate(207.59113, 286.650888)"><g><path d="M 4.734375 -5.761719 C 6.316406 -5.382812 7.398438 -4.96875 7.972656 -4.5 C 8.371094 -4.175781 8.566406 -3.761719 8.566406 -3.257812 C 8.566406 -2.753906 8.460938 -2.339844 8.242188 -2.050781 C 7.703125 -1.296875 6.730469 -0.917969 5.363281 -0.917969 C 3.457031 -0.917969 2.375 -1.566406 2.140625 -2.863281 L 0.664062 -2.863281 C 1.097656 -0.792969 2.664062 0.234375 5.363281 0.234375 C 6.570312 0.234375 7.578125 -0.0195312 8.386719 -0.558594 C 9.359375 -1.1875 9.863281 -2.125 9.863281 -3.347656 C 9.863281 -4.355469 9.46875 -5.128906 8.675781 -5.671875 C 8.117188 -6.066406 7.21875 -6.425781 5.976562 -6.75 C 4.714844 -7.074219 3.90625 -7.34375 3.527344 -7.542969 C 2.699219 -7.957031 2.285156 -8.53125 2.304688 -9.289062 C 2.304688 -9.683594 2.375 -10.027344 2.554688 -10.277344 C 3.023438 -10.980469 3.851562 -11.339844 5.039062 -11.339844 C 6.714844 -11.339844 7.667969 -10.800781 7.921875 -9.757812 L 9.289062 -9.757812 C 8.839844 -11.519531 7.414062 -12.421875 5.039062 -12.421875 C 3.960938 -12.421875 3.007812 -12.132812 2.214844 -11.554688 C 1.402344 -10.980469 0.988281 -10.132812 0.988281 -8.980469 C 0.988281 -7.414062 2.25 -6.335938 4.734375 -5.761719 Z M 4.734375 -5.761719 "/></g></g></g><g fill="#000000" fill-opacity="1"><g transform="translate(221.775211, 286.650888)"><g><path d="M 8.621094 0 L 8.621094 -1.171875 L 2.609375 -1.171875 L 2.609375 -5.527344 L 8.441406 -5.527344 L 8.441406 -6.714844 L 2.609375 -6.714844 L 2.609375 -11.070312 L 8.621094 -11.070312 L 8.621094 -12.238281 L 1.351562 -12.238281 L 1.351562 0 Z M 8.621094 0 "/></g></g></g><g fill="#000000" fill-opacity="1"><g transform="translate(235.599295, 286.650888)"><g><path d="M 3.328125 -4.5 L 5.5625 -10.132812 L 7.777344 -4.5 Z M 10.925781 0 L 5.5625 -13.085938 L 0.179688 0 L 1.546875 0 L 2.863281 -3.328125 L 8.242188 -3.328125 L 9.558594 0 Z M 10.925781 0 "/></g></g></g><g fill="#000000" fill-opacity="1"><g transform="translate(250.557374, 286.650888)"><g><path d="M 2.609375 -6.046875 L 2.609375 -11.035156 L 5.453125 -11.035156 C 6.191406 -11.035156 6.785156 -10.800781 7.234375 -10.332031 C 7.667969 -9.863281 7.902344 -9.289062 7.902344 -8.566406 C 7.902344 -7.847656 7.667969 -7.253906 7.199219 -6.769531 C 6.730469 -6.28125 6.15625 -6.046875 5.453125 -6.046875 Z M 9.160156 -8.550781 C 9.160156 -9.59375 8.765625 -10.492188 8.011719 -11.195312 C 7.273438 -11.878906 6.355469 -12.238281 5.273438 -12.238281 L 1.351562 -12.238281 L 1.351562 0 L 2.609375 0 L 2.609375 -4.84375 L 4.066406 -4.84375 L 7.667969 0 L 9.359375 0 L 5.578125 -4.84375 C 6.535156 -4.894531 7.34375 -5.238281 8.011719 -5.867188 C 8.765625 -6.570312 9.160156 -7.46875 9.160156 -8.550781 Z M 9.160156 -8.550781 "/></g></g></g><g fill="#000000" fill-opacity="1"><g transform="translate(264.201466, 286.650888)"><g><path d="M 12.582031 -3.742188 L 11.195312 -3.742188 C 10.765625 -2.953125 10.171875 -2.304688 9.414062 -1.835938 C 8.65625 -1.351562 7.8125 -1.117188 6.910156 -1.117188 C 5.5625 -1.117188 4.410156 -1.601562 3.457031 -2.609375 C 2.519531 -3.5625 2.070312 -4.734375 2.070312 -6.101562 C 2.070312 -7.46875 2.519531 -8.640625 3.457031 -9.613281 C 3.886719 -10.0625 4.410156 -10.421875 5.003906 -10.691406 C 5.578125 -10.960938 6.15625 -11.105469 6.730469 -11.105469 C 7.289062 -11.105469 7.777344 -11.035156 8.207031 -10.90625 C 9.523438 -10.511719 10.511719 -9.71875 11.179688 -8.515625 L 12.5625 -8.515625 C 12.097656 -9.664062 11.359375 -10.601562 10.332031 -11.320312 C 9.289062 -12.042969 8.152344 -12.402344 6.910156 -12.402344 C 5.203125 -12.402344 3.761719 -11.773438 2.574219 -10.53125 C 2.015625 -9.953125 1.585938 -9.269531 1.277344 -8.515625 C 0.953125 -7.757812 0.808594 -6.949219 0.808594 -6.101562 C 0.808594 -4.375 1.386719 -2.914062 2.574219 -1.691406 C 3.761719 -0.433594 5.203125 0.179688 6.910156 0.179688 C 8.152344 0.179688 9.289062 -0.179688 10.351562 -0.898438 C 11.375 -1.621094 12.113281 -2.554688 12.582031 -3.742188 Z M 12.582031 -3.742188 "/></g></g></g><g fill="#000000" fill-opacity="1"><g transform="translate(281.175536, 286.650888)"><g><path d="M 2.609375 0 L 2.609375 -5.472656 L 8.171875 -5.472656 L 8.171875 0 L 9.433594 0 L 9.433594 -12.238281 L 8.171875 -12.238281 L 8.171875 -6.730469 L 2.609375 -6.730469 L 2.609375 -12.238281 L 1.351562 -12.238281 L 1.351562 0 Z M 2.609375 0 "/></g></g></g><g fill="#000000" fill-opacity="1"><g transform="translate(295.809621, 286.650888)"><g><path d="M 3.4375 -0.109375 C 3.652344 -0.304688 3.761719 -0.539062 3.761719 -0.828125 C 3.761719 -1.117188 3.652344 -1.351562 3.4375 -1.546875 C 3.222656 -1.746094 2.988281 -1.855469 2.699219 -1.855469 C 2.410156 -1.855469 2.179688 -1.746094 1.960938 -1.546875 C 1.746094 -1.332031 1.65625 -1.097656 1.65625 -0.828125 C 1.65625 -0.539062 1.746094 -0.304688 1.960938 -0.109375 C 2.179688 0.0898438 2.410156 0.179688 2.699219 0.179688 C 2.988281 0.179688 3.222656 0.0898438 3.4375 -0.109375 Z M 3.636719 -13.5 L 1.765625 -13.5 L 2.105469 -3.652344 L 3.292969 -3.652344 Z M 3.636719 -13.5 "/></g></g></g></svg>